<svg aria-hidden="true" style="position: absolute; width: 0; height: 0; overflow: hidden;" version="1.1" xmlns="http://www.w3.org/2000/svg" xmlns:xlink="http://www.w3.org/1999/xlink">
<defs>
<symbol id="icon-linkedIn" viewBox="0 0 32 32">
<path d="M25.751 4h-19.5c-1.24 0-2.251 1.013-2.251 2.251v19.5c0 1.236 1.013 2.249 2.251 2.249h19.5c1.236 0 2.249-1.013 2.249-2.249v-19.5c0-1.24-1.013-2.251-2.249-2.251zM13 23.5h-3v-10.5h3zM11.5 11.5c-0.828 0-1.5-0.672-1.5-1.5s0.672-1.5 1.5-1.5v0c0.828 0 1.5 0.672 1.5 1.5s-0.672 1.5-1.5 1.5v0zM23.5 23.5h-3v-6c0-0.828-0.672-1.5-1.5-1.5s-1.5 0.672-1.5 1.5v0 6h-3v-10.5h3v1.861c0.619-0.849 1.565-1.861 2.625-1.861 1.867 0 3.375 1.679 3.375 3.751z"></path>
</symbol>
<symbol id="icon-star-fillled" viewBox="0 0 32 32">
<path d="M8.688 19.097l-1.987 8.603c-0.023 0.092-0.036 0.197-0.036 0.306 0 0.735 0.596 1.331 1.331 1.331 0.277 0 0.535-0.085 0.748-0.23l-0.005 0.003 7.26-4.84 7.26 4.84c0.208 0.14 0.463 0.223 0.738 0.223 0.737 0 1.335-0.598 1.335-1.335 0-0.129-0.018-0.254-0.053-0.372l0.002 0.009-2.439-8.533 6.048-5.443c0.271-0.245 0.441-0.598 0.441-0.991 0-0.699-0.538-1.273-1.223-1.329l-0.005-0-7.601-0.605-3.289-7.281c-0.212-0.469-0.676-0.789-1.215-0.789s-1.002 0.32-1.211 0.781l-0.003 0.008-3.289 7.281-7.601 0.604c-0.69 0.056-1.228 0.63-1.228 1.329 0 0.374 0.154 0.712 0.402 0.955l0 0z"></path>
</symbol>
<symbol id="icon-star" viewBox="0 0 32 32">
<path d="M8.688 19.097l-1.987 8.603c-0.023 0.092-0.036 0.197-0.036 0.306 0 0.735 0.596 1.331 1.331 1.331 0.277 0 0.535-0.085 0.748-0.23l-0.005 0.003 7.26-4.84 7.26 4.84c0.208 0.14 0.463 0.223 0.738 0.223 0.737 0 1.335-0.598 1.335-1.335 0-0.129-0.018-0.254-0.053-0.372l0.002 0.009-2.439-8.533 6.048-5.443c0.271-0.245 0.441-0.598 0.441-0.991 0-0.699-0.538-1.273-1.223-1.329l-0.005-0-7.601-0.605-3.289-7.281c-0.212-0.469-0.676-0.789-1.215-0.789s-1.002 0.32-1.211 0.781l-0.003 0.008-3.289 7.281-7.601 0.604c-0.69 0.056-1.228 0.63-1.228 1.329 0 0.374 0.154 0.712 0.402 0.955l0 0zM12.492 13.329c0.495-0.041 0.91-0.346 1.106-0.773l0.003-0.008 2.399-5.308 2.399 5.308c0.2 0.435 0.614 0.741 1.105 0.781l0.005 0 5.296 0.42-4.361 3.925c-0.379 0.341-0.529 0.867-0.391 1.357l1.671 5.847-4.981-3.321c-0.208-0.141-0.464-0.225-0.739-0.225s-0.532 0.084-0.744 0.228l0.005-0.003-5.205 3.471 1.4-6.061c0.022-0.090 0.034-0.193 0.034-0.299 0-0.374-0.154-0.712-0.402-0.954l-0-0-4.051-3.949z"></path>
</symbol>
<symbol id="icon-menu" viewBox="0 0 32 32">
<path d="M5.333 8h21.333v2.667h-21.333zM5.333 14.667h21.333v2.667h-21.333zM5.333 21.333h21.333v2.667h-21.333z"></path>
</symbol>
<symbol id="icon-x" viewBox="0 0 32 32">
<path d="M21.589 8.459l-5.657 5.656-5.656-5.656-1.885 1.885 5.656 5.656-5.656 5.656 1.885 1.885 5.656-5.656 5.657 5.656 1.885-1.885-5.656-5.656 5.656-5.656z"></path>
</symbol>
<symbol id="icon-youtube" viewBox="0 0 32 32">
<path d="M28.791 9.604c-0.315-1.149-1.201-2.037-2.326-2.349l-0.023-0.006c-2.088-0.573-10.44-0.583-10.44-0.583s-8.353-0.009-10.443 0.539c-1.146 0.334-2.029 1.222-2.349 2.347l-0.006 0.024c-0.551 2.088-0.556 6.419-0.556 6.419s-0.005 4.352 0.541 6.419c0.307 1.143 1.207 2.045 2.351 2.353 2.109 0.573 10.44 0.583 10.44 0.583s8.353 0.009 10.441-0.537c1.147-0.32 2.033-1.204 2.35-2.327l0.006-0.024c0.552-2.087 0.556-6.416 0.556-6.416s0.027-4.353-0.543-6.441zM13.328 20.007l0.007-8 6.943 4.007z"></path>
</symbol>
<symbol id="icon-instagram" viewBox="0 0 32 32">
<path d="M15.999 6.16c3.205 0 3.585 0.016 4.845 0.072 1.173 0.052 1.804 0.248 2.227 0.413 0.557 0.215 0.96 0.477 1.377 0.893 0.423 0.423 0.68 0.821 0.9 1.379 0.164 0.423 0.36 1.060 0.413 2.227 0.056 1.267 0.069 1.645 0.069 4.847s-0.013 3.587-0.071 4.847c-0.051 1.173-0.248 1.804-0.412 2.227-0.203 0.54-0.508 1-0.894 1.377l-0.001 0.001c-0.423 0.423-0.821 0.68-1.379 0.9-0.421 0.164-1.059 0.36-2.227 0.413-1.265 0.056-1.644 0.069-4.845 0.069s-3.587-0.013-4.847-0.071c-1.173-0.051-1.805-0.248-2.227-0.412-0.54-0.203-1.001-0.508-1.378-0.895l-0.001-0.001c-0.389-0.377-0.695-0.837-0.891-1.352l-0.009-0.026c-0.164-0.421-0.36-1.059-0.413-2.227-0.055-1.265-0.069-1.644-0.069-4.847 0-3.2 0.013-3.584 0.071-4.845 0.052-1.173 0.248-1.805 0.413-2.227 0.215-0.559 0.477-0.96 0.893-1.379 0.378-0.389 0.838-0.696 1.353-0.891l0.026-0.009c0.423-0.164 1.060-0.36 2.227-0.413 1.261-0.055 1.64-0.069 4.847-0.069zM15.997 4.001c-3.257 0-3.665 0.015-4.945 0.071-1.275 0.057-2.151 0.263-2.911 0.559-0.833 0.318-1.542 0.79-2.126 1.386l-0.001 0.001c-0.596 0.584-1.068 1.292-1.373 2.084l-0.014 0.040c-0.296 0.764-0.503 1.635-0.56 2.909-0.052 1.284-0.068 1.692-0.068 4.949 0 3.259 0.013 3.665 0.071 4.945 0.056 1.275 0.263 2.152 0.557 2.911 0.318 0.833 0.79 1.542 1.386 2.126l0.001 0.001c0.584 0.595 1.293 1.065 2.084 1.369l0.040 0.014c0.764 0.296 1.636 0.503 2.911 0.559 1.28 0.056 1.687 0.071 4.944 0.071s3.667-0.013 4.947-0.071c1.273-0.056 2.151-0.263 2.909-0.559 0.831-0.318 1.539-0.788 2.122-1.382l0.001-0.001c0.665-0.667 1.079-1.335 1.383-2.123 0.296-0.764 0.501-1.635 0.559-2.911 0.056-1.28 0.071-1.687 0.071-4.944s-0.015-3.665-0.071-4.945c-0.057-1.275-0.263-2.151-0.559-2.911-0.305-0.838-0.774-1.551-1.372-2.132l-0.001-0.001c-0.584-0.594-1.292-1.064-2.082-1.368l-0.040-0.014c-0.764-0.296-1.635-0.503-2.911-0.559-1.284-0.061-1.691-0.076-4.948-0.076z"></path>
<path d="M15.999 9.836c-3.337 0.088-6.008 2.814-6.008 6.163s2.671 6.076 6 6.163l0.008 0c3.365-0.051 6.073-2.791 6.073-6.163s-2.708-6.112-6.069-6.163l-0.005-0zM15.999 19.996c-2.208 0-3.997-1.79-3.997-3.997s1.79-3.997 3.997-3.997v0c2.208 0 3.998 1.79 3.998 3.998s-1.79 3.998-3.998 3.998v0zM23.843 9.592c0.001 0.018 0.001 0.040 0.001 0.062 0 0.795-0.645 1.44-1.44 1.44s-1.44-0.645-1.44-1.44c0-0.022 0-0.043 0.001-0.065l-0 0.003c0.034-0.768 0.665-1.378 1.439-1.378s1.405 0.61 1.439 1.375l0 0.003z"></path>
</symbol>
<symbol id="icon-solid_menu" viewBox="0 0 32 32">
<path d="M4.8 8c0-0.884 0.716-1.6 1.6-1.6h19.2c0.884 0 1.6 0.716 1.6 1.6s-0.716 1.6-1.6 1.6h-19.2c-0.884 0-1.6-0.716-1.6-1.6v0zM4.8 16c0-0.884 0.716-1.6 1.6-1.6h19.2c0.884 0 1.6 0.716 1.6 1.6s-0.716 1.6-1.6 1.6h-19.2c-0.884 0-1.6-0.716-1.6-1.6v0zM4.8 24c0-0.884 0.716-1.6 1.6-1.6h19.2c0.884 0 1.6 0.716 1.6 1.6s-0.716 1.6-1.6 1.6h-19.2c-0.884 0-1.6-0.716-1.6-1.6v0z"></path>
</symbol>
<symbol id="icon-favicon" viewBox="0 0 32 32">
<path fill="#75d281" style="fill: var(--color1, #75d281)" d="M0 0h32v32h-32z"></path>
<path fill="#030a06" style="fill: var(--color2, #030a06)" d="M15.511 3c-0.128 0-0.263 0-0.39 0.015-1.469 0.123-2.819 0.747-3.78 1.884-1.047 1.238-1.3 2.542-1.288 4.117l-2.8-0.004q-0.188-0.001-0.386-0.008c-0.365-0.010-0.744-0.020-1.086 0.042-0.211 0.040-0.394 0.143-0.532 0.29l-0 0.001c-0.254 0.264-0.26 0.598-0.244 0.94 0.026 0.54 0.073 1.080 0.12 1.62q0.038 0.44 0.071 0.88l0.465 6.004 0.226 2.9q0.016 0.215 0.029 0.432c0.032 0.52 0.064 1.046 0.201 1.542 0.459 1.61 1.721 2.844 3.314 3.256l0.032 0.007c0.628 0.151 1.357 0.134 2.042 0.118q0.307-0.009 0.596-0.010h7.060q0.27 0.001 0.552 0.010c0.608 0.014 1.242 0.030 1.81-0.103 0.859-0.21 1.601-0.631 2.193-1.204l-0.001 0.001c0.543-0.539 0.976-1.258 1.166-2.001 0.145-0.569 0.181-1.192 0.217-1.797q0.015-0.293 0.037-0.577l0.309-3.976 0.385-4.882c0.029-0.376 0.053-0.627 0.080-0.878l-0.013 0.148c0.052-0.529 0.105-1.062 0.104-1.585 0-0.322-0.069-0.622-0.3-0.861-0.158-0.165-0.417-0.245-0.637-0.281-0.329-0.054-0.69-0.044-1.039-0.035q-0.194 0.006-0.38 0.007-1.32-0.003-2.642 0.010h-0.037c0.020-1.687-0.355-3.135-1.568-4.369-0.979-1.014-2.349-1.646-3.866-1.652h-0.001zM20.847 12.623l0.047 0.003 0.004 0.010 0.001 0.003 0.006 0.014 0.002 0.004c0.009 0.020 0.010 0.023 0.010 0.055-0.015 2.069-0.57 4.733-2.037 6.248-1.36 1.403-3.471 2.091-5.397 2.13 0.897-1.688 2.338-3.287 3.825-4.475 0.23-0.184 0.47-0.35 0.711-0.516q0.233-0.16 0.463-0.326c0.148-0.108 0.347-0.255 0.368-0.453 0.019-0.183-0.078-0.324-0.192-0.454-0.16-0.093-0.277-0.132-0.46-0.078-0.259 0.076-0.52 0.268-0.756 0.44q-0.093 0.070-0.181 0.132c-1.903 1.358-3.46 3.074-4.597 5.061l-0.041 0.077c-0.039-1.655 0.338-3.040 1.353-4.372 1.523-1.997 4.438-3.171 6.87-3.503zM6.050 10.048h18.91c-0.067 0.637-0.11 1.28-0.154 1.921q-0.035 0.537-0.076 1.071l-0.51 6.381-0.19 2.352-0.024 0.307c-0.030 0.406-0.061 0.815-0.14 1.212-0.091 0.423-0.246 0.797-0.457 1.133l0.009-0.015q-0.122 0.185-0.264 0.356c-0.549 0.655-1.449 1.143-2.303 1.208-0.466 0.035-0.945 0.026-1.42 0.018q-0.308-0.007-0.611-0.008h-7.046q-0.226 0-0.458 0.007c-0.474 0.010-0.959 0.020-1.414-0.059-0.624-0.111-1.172-0.381-1.618-0.765l0.004 0.004c-0.539-0.457-0.936-1.065-1.127-1.758l-0.006-0.025c-0.128-0.462-0.16-0.953-0.191-1.436l-0.025-0.362-0.186-2.392zM21.267 11.515l-0.014 0.001c-2.871 0.332-6.14 1.513-7.995 3.839-1.192 1.494-1.844 3.438-1.629 5.352 0.047 0.42 0.143 0.822 0.28 1.222l-0.056 0.142c-0.236 0.592-0.783 1.968-0.593 2.375 0.060 0.114 0.163 0.198 0.286 0.234l0.003 0.001q0.074 0.023 0.153 0.031c0.16-0.026 0.31-0.060 0.406-0.203 0.104-0.155 0.21-0.527 0.301-0.845 0.044-0.151 0.084-0.29 0.118-0.388 0.118-0.335 0.252-0.665 0.386-0.994l0.001-0.004 0.047-0.115c2.368 0.007 4.896-0.734 6.608-2.424 1.916-1.89 2.398-4.938 2.402-7.517 0-0.203-0.014-0.445-0.163-0.6-0.091-0.096-0.229-0.125-0.357-0.122-0.068 0.002-0.131 0.008-0.194 0.016l0.010-0.001zM15.281 4.035c0.082-0.006 0.178-0.010 0.275-0.010h0c1.125 0.007 2.25 0.51 3.040 1.302 1.076 1.080 1.297 2.224 1.299 3.689l-8.756 0.004c-0.035-1.26 0.168-2.41 0.994-3.403 0.793-0.955 1.925-1.473 3.148-1.583z"></path>
</symbol>
</defs>
</svg>
